FILE "IRRÉEL (v0.018) (XL2) (IRRÉEL (v0.018) (XL2) (RA Compatible)).iso" BINARY
  TRACK 01 MODE1/2048
      INDEX 01 00:00:00
      POSTGAP 00:02:00
FILE "TRACK01.wav" WAVE
  TRACK 02 AUDIO
    PREGAP 00:02:00
    INDEX 01 00:00:00
FILE "TRACK02.WAV" WAVE
  TRACK 03 AUDIO
    INDEX 01 00:00:00
FILE "TRACK03.WAV" WAVE
  TRACK 04 AUDIO
    INDEX 01 00:00:00
FILE "TRACK04.wav" WAVE
  TRACK 05 AUDIO
    INDEX 01 00:00:00
